<?xml version="1.0" standalone="no"?>
<!DOCTYPE svg PUBLIC "-//W3C//DTD SVG 20010904//EN"
 "http://www.w3.org/TR/2001/REC-SVG-20010904/DTD/svg10.dtd">
<svg version="1.0" xmlns="http://www.w3.org/2000/svg"
 width="1366.000000pt" height="1366.000000pt" viewBox="0 0 1366.000000 1366.000000"
 preserveAspectRatio="xMidYMid meet">
<metadata>
Created by potrace 1.11, written by Peter Selinger 2001-2013
</metadata>
<g transform="translate(0.000000,1366.000000) scale(0.100000,-0.100000)"
fill="#000000" stroke="none">
<path d="M0 6830 l0 -6830 3095 0 3095 0 0 1484 0 1484 -396 494 c-455 565
-876 1091 -1500 1868 -241 300 -528 658 -639 795 -553 687 -725 903 -725 909
0 3 358 6 796 6 l796 0 24 -28 c13 -15 249 -313 525 -662 275 -349 549 -696
608 -770 59 -74 167 -211 241 -305 213 -271 278 -353 375 -475 50 -63 201
-254 334 -423 134 -169 247 -304 251 -300 8 8 62 76 860 1088 260 330 505 641
545 690 39 50 217 275 395 500 178 226 371 470 429 542 l105 133 814 0 c529 0
813 -3 810 -10 -1 -5 -259 -326 -573 -712 -313 -386 -610 -752 -660 -813 -93
-115 -406 -500 -576 -710 -263 -323 -385 -473 -906 -1116 l-562 -694 -6 -1487
-6 -1488 3056 0 3055 0 0 6830 0 6830 -3155 0 -3155 0 0 -2110 0 -2110 -470 0
-470 0 0 2110 0 2110 -3205 0 -3205 0 0 -6830z m4881 4090 c37 -63 280 -488
542 -945 261 -456 694 -1212 961 -1680 268 -467 491 -854 495 -858 5 -5 69 99
143 230 74 131 220 387 323 568 103 182 207 364 230 405 23 41 210 370 415
730 205 360 468 824 585 1030 117 206 246 434 287 505 l74 130 97 0 c53 0 311
-1 573 -3 l476 -2 -28 -47 c-32 -57 -519 -883 -976 -1658 -107 -181 -293 -496
-413 -700 -120 -203 -275 -467 -345 -585 -70 -118 -232 -393 -360 -610 -128
-217 -299 -507 -380 -645 -81 -137 -272 -461 -425 -720 -152 -258 -280 -473
-284 -478 -4 -4 -36 41 -71 100 -34 60 -107 182 -160 273 -136 230 -823 1398
-880 1495 -45 78 -1193 2029 -1796 3055 l-304 515 488 5 c268 3 528 5 577 5
l90 0 66 -115z"/>
</g>
</svg>
